<svg width="479" height="110" viewBox="0 0 479 110" fill="none" xmlns="http://www.w3.org/2000/svg">
<path d="M169.582 94.4164C165.939 94.4164 163.127 93.7201 161.145 92.3273C159.163 90.881 157.771 88.792 156.967 86.0601C156.217 83.2746 155.842 79.8732 155.842 75.8557V65.2495C155.842 61.1249 156.244 57.6967 157.047 54.9648C157.851 52.2329 159.244 50.1706 161.226 48.7779C163.261 47.3852 166.047 46.6888 169.582 46.6888C173.492 46.6888 176.358 47.4923 178.179 49.0993C180.054 50.7063 181.286 53.0364 181.875 56.0897C182.465 59.0894 182.759 62.7051 182.759 66.9369V70.7133H164.44V80.0339C164.44 81.9087 164.6 83.4353 164.922 84.6138C165.297 85.7922 165.859 86.6761 166.609 87.2653C167.412 87.801 168.43 88.0688 169.662 88.0688C170.948 88.0688 171.912 87.7742 172.555 87.185C173.251 86.5422 173.707 85.6583 173.921 84.5334C174.189 83.355 174.323 81.989 174.323 80.4356V77.6234H182.679V79.3911C182.679 84.0513 181.688 87.7206 179.706 90.3989C177.724 93.0773 174.349 94.4164 169.582 94.4164ZM164.44 66.053H174.323V61.8749C174.323 59.9465 174.215 58.3395 174.001 57.0539C173.787 55.7147 173.332 54.7238 172.635 54.081C171.992 53.3846 170.948 53.0364 169.502 53.0364C168.109 53.0364 167.038 53.3578 166.288 54.0006C165.591 54.6434 165.109 55.7415 164.841 57.2949C164.573 58.7948 164.44 60.8839 164.44 63.5622V66.053Z" fill="white"/>
<path d="M134.435 94.4164C132.614 94.4164 131.194 93.9343 130.176 92.9701C129.159 92.0059 128.435 90.8007 128.007 89.3544C127.632 87.9081 127.444 86.435 127.444 84.9351V47.3316H136.042V82.364C136.042 84.0245 136.283 85.3369 136.765 86.3011C137.247 87.2117 138.238 87.667 139.738 87.667C140.702 87.667 141.693 87.3992 142.711 86.8635C143.782 86.2743 144.8 85.5779 145.764 84.7744V47.3316H154.362V93.7736H145.764V89.1937C144.264 90.6399 142.55 91.872 140.622 92.8897C138.747 93.9075 136.685 94.4164 134.435 94.4164Z" fill="white"/>
<path d="M105.679 93.7735L91.1356 28.6905H99.6527L109.937 76.6591L119.74 28.6905H128.016L113.633 93.7735H105.679Z" fill="white"/>
<path d="M79.7155 94.4164C75.9123 94.4164 73.0197 93.6665 71.0378 92.1666C69.1094 90.6132 67.797 88.4438 67.1007 85.6583C66.4579 82.8729 66.1365 79.6321 66.1365 75.936V65.2495C66.1365 61.3392 66.4847 58.0181 67.181 55.2862C67.8774 52.5008 69.1898 50.3849 71.1181 48.9386C73.1001 47.4387 75.9659 46.6888 79.7155 46.6888C83.0902 46.6888 85.6882 47.2513 87.5094 48.3762C89.3843 49.4475 90.6699 51.0813 91.3662 53.2775C92.0626 55.4201 92.4108 58.0984 92.4108 61.3124V64.0443H84.6169V61.2321C84.6169 59.1966 84.4829 57.5896 84.2151 56.4111C83.9473 55.2326 83.4652 54.3756 82.7688 53.8399C82.0725 53.3043 81.0815 53.0364 79.7959 53.0364C78.4032 53.0364 77.3318 53.3578 76.5819 54.0006C75.832 54.6434 75.3231 55.7415 75.0553 57.2949C74.841 58.7948 74.7339 60.8571 74.7339 63.4819V78.1055C74.7339 82.0694 75.1088 84.7209 75.8588 86.0601C76.6087 87.3992 77.9478 88.0688 79.8762 88.0688C81.3225 88.0688 82.3671 87.7474 83.0099 87.1046C83.7062 86.4083 84.1348 85.4441 84.2955 84.212C84.5097 82.98 84.6169 81.5873 84.6169 80.0339V76.2574H92.4108V79.4714C92.4108 82.5783 92.0358 85.2566 91.2859 87.5064C90.5895 89.7561 89.3039 91.4703 87.4291 92.6487C85.6078 93.8272 83.0367 94.4164 79.7155 94.4164Z" fill="white"/>
<path d="M55.6495 93.7736V47.3316H64.2469V93.7736H55.6495ZM55.6495 40.4215V31.4224H64.2469V40.4215H55.6495Z" fill="white"/>
<path d="M25.6559 109.04V47.3316H34.2533V51.0277C35.271 49.8492 36.5031 48.8315 37.9494 47.9744C39.3956 47.1173 41.1098 46.6888 43.0917 46.6888C45.5022 46.6888 47.4038 47.3316 48.7965 48.6172C50.2428 49.8492 51.3142 51.4294 52.0105 53.3578C52.7069 55.2326 53.1622 57.161 53.3765 59.143C53.5907 61.0714 53.6979 62.7319 53.6979 64.1247V75.3736C53.6979 78.6411 53.3765 81.748 52.7337 84.6941C52.0909 87.5867 50.9124 89.9436 49.1983 91.7649C47.5377 93.5326 45.1808 94.4164 42.1275 94.4164C40.467 94.4164 38.9939 94.0147 37.7083 93.2112C36.4227 92.3541 35.271 91.3899 34.2533 90.3186V109.04H25.6559ZM40.4402 87.6671C41.94 87.6671 43.0114 87.1314 43.6542 86.0601C44.297 84.9352 44.6987 83.4353 44.8594 81.5605C45.0201 79.6857 45.1005 77.6234 45.1005 75.3736V64.1247C45.1005 62.1963 44.9933 60.4286 44.7791 58.8216C44.5648 57.161 44.1095 55.8487 43.4131 54.8845C42.7168 53.9203 41.6187 53.4382 40.1188 53.4382C38.9939 53.4382 37.9226 53.6792 36.9048 54.1613C35.8871 54.6434 35.0032 55.2059 34.2533 55.8487V85.578C35.0568 86.1672 35.9674 86.6761 36.9852 87.1046C38.0029 87.4796 39.1546 87.6671 40.4402 87.6671Z" fill="white"/>
<path d="M0.0865479 93.7735V28.6905H25.3163V35.4398H9.16604V56.9735H22.263V63.4014H9.16604V87.2652H25.477V93.7735H0.0865479Z" fill="white"/>
<path d="M474.02 59.4179C474.817 59.9493 475.349 60.4807 475.615 61.0121C475.933 61.4904 476.119 62.075 476.173 62.7658C476.173 64.4132 476.066 66.1934 475.854 68.1065C475.747 69.2224 475.588 71.0292 475.375 73.5269C475.216 75.9714 475.216 79.0536 475.375 82.7735C475.588 86.4933 476.518 89.7881 478.165 92.6577C478.272 92.9234 478.219 93.136 478.006 93.2954C477.847 93.4548 477.661 93.5877 477.448 93.694H477.368C474.446 94.9162 471.576 94.8365 468.759 93.4548C465.358 91.8606 463.206 89.2567 462.303 85.6431L462.143 84.6865C462.09 84.3145 462.037 83.9957 461.984 83.73C461.931 83.4111 461.824 83.172 461.665 83.0126C461.506 82.8532 461.32 82.8797 461.107 83.0923C460.948 83.3049 460.788 83.5706 460.629 83.8894C460.523 84.1551 460.31 84.6865 459.991 85.4837C459.725 86.2808 459.194 87.3967 458.397 88.8315C457.653 90.2664 456.856 91.4886 456.006 92.4983C453.774 94.9428 450.984 96.0588 447.636 95.8462C443.863 95.5805 440.967 94.0925 438.947 91.3823C436.928 88.619 435.626 85.4836 435.041 81.9763C434.032 75.3868 434.51 68.9036 436.476 62.5267C437.38 58.9662 438.894 55.6183 441.02 52.483C442.083 50.9419 443.305 49.6133 444.686 48.4974C446.121 47.3814 447.662 46.5577 449.31 46.0263C450.957 45.4949 452.472 45.2026 453.853 45.1495C455.341 45.0963 456.935 45.2026 458.636 45.4683C461.878 46.0529 464.402 47.4346 466.209 49.6133C466.368 49.8259 466.554 50.1713 466.767 50.6496C467.032 51.0747 467.192 51.5264 467.245 52.0047C467.351 52.4298 467.245 52.6955 466.926 52.8018C466.554 52.855 465.943 52.6424 465.093 52.1641C464.349 51.6859 463.419 51.2607 462.303 50.8887C461.24 50.5167 460.018 50.5167 458.636 50.8887C457.254 51.2076 456.059 51.8453 455.049 52.8018C454.039 53.8115 453.269 55.0869 452.737 56.628C451.621 59.657 450.904 62.6064 450.585 65.476C450.107 68.7176 449.761 71.9592 449.549 75.2008C449.496 75.7322 449.496 76.6622 449.549 77.9907C449.602 79.3193 449.735 80.6478 449.947 81.9763C450.16 83.2517 450.505 84.0754 450.984 84.4474C451.515 84.8194 452.232 84.2614 453.136 82.7735C454.571 80.1164 455.926 77.0342 457.201 73.5269C458.53 69.9664 459.539 67.0171 460.23 64.6789C460.974 62.2875 461.559 60.5073 461.984 59.3382C462.409 58.1691 462.861 57.2922 463.339 56.7077C463.924 56.1231 464.641 55.8309 465.491 55.8309C466.129 55.884 466.767 56.0169 467.404 56.2294C468.095 56.442 468.706 56.6545 469.238 56.8671C470.885 57.5579 472.479 58.4082 474.02 59.4179Z" fill="white"/>
<path d="M397.221 46.3451C401.154 47.8862 403.146 50.7824 403.199 55.0337C403.199 55.14 403.199 55.2994 403.199 55.512C403.253 55.6714 403.306 55.8574 403.359 56.07C403.412 56.2826 403.492 56.442 403.598 56.5483C403.704 56.6014 403.837 56.5483 403.997 56.3888C404.156 56.2294 404.315 55.884 404.475 55.3526C404.687 54.8212 404.873 54.3163 405.033 53.8381C405.139 53.5192 405.245 53.2535 405.352 53.0409C406.787 49.2148 408.673 46.7703 411.011 45.7075C413.349 44.5915 416.485 44.8041 420.417 46.3451C423.606 47.6737 425.466 49.7728 425.997 52.6424C426.528 55.512 426.582 58.7536 426.156 62.3672C426.103 62.6329 426.077 62.8986 426.077 63.1643C425.971 64.4397 425.891 66.5122 425.838 69.3819C425.785 72.1983 425.838 74.9883 425.997 77.7516C426.156 80.5149 426.475 82.3749 426.954 83.3314C427.166 83.7566 427.485 83.8628 427.91 83.6503C428.07 83.4908 428.256 83.3049 428.468 83.0923C428.681 82.8797 428.867 82.6672 429.026 82.4546C430.939 79.7975 432.533 76.4762 433.809 72.4906C435.137 68.4519 436.147 64.732 436.838 61.331C437.05 60.3744 437.422 59.6039 437.954 59.0193C438.538 58.4348 439.309 58.3816 440.265 58.8599C441.063 59.3382 441.541 60.029 441.7 60.9324C441.913 61.8358 441.913 62.7392 441.7 63.6426C441.647 63.9615 441.567 64.2803 441.461 64.5992C440.77 68.691 439.495 73.58 437.635 79.2661C435.828 84.9522 433.517 89.2567 430.7 92.1794C428.202 94.1988 425.466 94.9162 422.49 94.3316C419.567 93.8002 417.096 92.392 415.077 90.1069C413.11 87.2373 411.994 83.358 411.729 78.469C411.463 73.5269 411.463 69.1693 411.729 65.3963V64.5194C411.782 63.8817 411.808 63.2175 411.808 62.5266C411.808 62.3672 411.808 61.9952 411.808 61.4107C411.808 60.773 411.782 60.1087 411.729 59.4179C411.729 58.6739 411.676 58.0362 411.569 57.5048C411.516 56.9734 411.383 56.7077 411.171 56.7077C410.32 57.3985 409.364 59.657 408.301 63.4832C407.291 67.2562 406.361 71.2152 405.511 75.3602C404.661 79.4521 404.129 82.2952 403.917 83.8894C403.598 85.9619 403.492 88.0344 403.598 90.1069C403.598 91.2229 403.439 92.1794 403.12 92.9766C402.801 93.7737 402.11 94.3582 401.047 94.7302C400.197 94.8896 399.081 94.7302 397.699 94.2519C396.371 93.7737 395.069 93.1891 393.794 92.4983C392.518 91.7543 391.562 91.09 390.924 90.5055C390.286 89.8147 389.888 89.0972 389.728 88.3533C389.622 87.5561 389.595 86.7059 389.648 85.8025C389.702 85.4836 389.728 85.1382 389.728 84.7662C389.675 82.4812 389.648 80.1961 389.648 77.911V72.9689C389.595 69.0896 389.463 65.1837 389.25 61.2513C389.25 60.8261 389.223 60.401 389.17 59.9759C389.064 58.0628 388.745 57 388.214 56.7874C387.735 56.5217 387.098 57.5579 386.301 59.8961C384.016 67.1765 382.262 74.6163 381.04 82.2155C380.827 83.7034 380.668 85.0319 380.561 86.201C380.508 87.3702 380.482 88.6721 380.482 90.1069C380.535 91.2229 380.402 92.1794 380.083 92.9766C379.764 93.7737 379.047 94.3582 377.931 94.7302C377.081 94.8896 375.965 94.7302 374.583 94.2519C373.254 93.7737 371.952 93.1891 370.677 92.4983C369.402 91.7543 368.445 91.09 367.807 90.5055C367.223 89.8678 366.851 89.2035 366.691 88.5127C366.585 87.8219 366.559 87.0779 366.612 86.2808V85.4039C366.559 81.1526 366.532 76.9013 366.532 72.65C366.32 65.6354 366.027 58.6473 365.655 51.6858V51.367C365.496 49.9322 365.655 48.5505 366.134 47.222C366.665 45.8403 367.807 45.2292 369.561 45.3886C370.571 45.6012 371.607 45.9466 372.67 46.4249C373.786 46.9031 374.796 47.3814 375.699 47.8597C377.293 48.8162 378.383 49.879 378.967 51.0481C379.552 52.1641 379.897 53.6255 380.003 55.4323C380.11 56.3888 380.322 56.7874 380.641 56.628C380.96 56.4154 381.226 55.9371 381.438 55.1932C382.023 53.1207 382.9 51.1013 384.069 49.1351C385.291 47.1688 386.991 45.8669 389.17 45.2292C391.934 44.8041 394.617 45.176 397.221 46.3451Z" fill="white"/>
<path d="M346.61 52.4032C345.6 53.3598 344.83 54.5554 344.298 55.9903C343.82 57.4251 343.448 58.8067 343.182 60.1353C342.704 62.8986 342.385 65.6885 342.226 68.505C342.173 68.9301 342.252 69.1693 342.465 69.2224C342.731 69.2756 343.076 69.249 343.501 69.1427C344.139 68.9301 344.697 68.6113 345.175 68.1862C345.228 68.133 345.255 68.0799 345.255 68.0267C346.264 67.1765 347.141 65.8214 347.885 63.9614C348.629 62.1015 349.187 60.1884 349.559 58.2222C349.984 56.2028 350.117 54.5289 349.958 53.2003C349.851 51.8187 349.4 51.181 348.603 51.2873C348.231 51.3935 347.859 51.553 347.487 51.7655C347.168 51.925 346.876 52.1375 346.61 52.4032ZM366.378 61.2512C366.644 60.2416 367.096 59.4444 367.733 58.8599C368.424 58.2753 369.275 58.3816 370.284 59.1787C371.241 60.1884 371.586 61.5435 371.321 63.244C371.055 64.9445 370.683 66.4325 370.205 67.7079V67.8673C369.089 71.4278 367.68 75.0945 365.98 78.8675C364.332 82.5874 362.207 85.9353 359.603 88.9112C356.999 91.8871 353.784 93.9862 349.958 95.2085C344.378 96.5901 339.542 95.5804 335.45 92.1794C331.411 88.7252 328.834 84.3411 327.718 79.027C326.815 74.1911 326.815 69.0364 327.718 63.5629C328.675 58.0893 330.774 53.5192 334.015 49.8525C337.257 46.1857 341.933 44.618 348.045 45.1495C352.509 45.6277 355.963 47.4877 358.407 50.7293C360.161 53.7583 360.719 57.1859 360.081 61.0121C359.443 64.8383 358.009 68.0267 355.777 70.5775C352.269 74.2443 348.018 75.4399 343.023 74.1645C342.545 74.0583 342.252 74.0848 342.146 74.2443C342.04 74.4037 342.013 74.7225 342.066 75.2008V75.3602C342.119 77.7516 342.598 80.1695 343.501 82.614C344.458 85.0585 346.291 86.387 349.001 86.5996C351.446 86.4933 353.651 85.3773 355.617 83.2517C357.637 81.126 359.364 78.6816 360.799 75.9182C362.286 73.1549 363.376 70.7635 364.067 68.7441C364.97 66.2996 365.741 63.802 366.378 61.2512Z" fill="white"/>
<path d="M311.858 46.3452C315.099 47.6737 316.959 49.7728 317.438 52.6424C317.969 55.512 318.022 58.7537 317.597 62.3673C317.597 62.633 317.57 62.8987 317.517 63.1644C317.198 68.1596 317.198 73.1549 317.517 78.1502V78.3893C317.57 78.9207 317.65 79.6913 317.756 80.701C317.863 81.7107 318.075 82.5343 318.394 83.172C318.766 83.7566 319.271 83.7566 319.909 83.172C320.653 82.3749 321.397 81.2855 322.141 79.9039C322.885 78.469 323.469 77.2468 323.894 76.2371C325.807 71.4013 327.295 66.4326 328.358 61.331C328.517 60.3745 328.889 59.6039 329.474 59.0194C330.059 58.4348 330.803 58.3817 331.706 58.8599C332.556 59.3382 333.061 60.029 333.22 60.9324C333.38 61.8358 333.353 62.7392 333.141 63.6426L332.981 64.5992C332.237 68.6911 330.935 73.58 329.075 79.2662C327.269 84.9523 324.957 89.2567 322.141 92.1795C319.696 94.1988 316.986 94.9162 314.01 94.3317C311.034 93.8003 308.563 92.392 306.597 90.107C304.524 87.0248 303.355 82.9329 303.089 77.8313C302.877 72.7298 302.93 68.1596 303.249 64.1209V62.9252C303.302 62.6595 303.329 62.1281 303.329 61.331C303.329 60.4807 303.275 59.6305 303.169 58.7802C303.063 57.8768 302.85 57.2126 302.531 56.7874C302.213 56.3623 301.734 56.4154 301.097 56.9468C299.874 58.2222 298.599 60.7996 297.27 64.6789C295.942 68.5051 294.799 72.4906 293.843 76.6357C292.886 80.7275 292.302 83.8097 292.089 85.8822C292.036 87.0513 292.036 88.1939 292.089 89.3098V90.107C292.089 91.2229 291.93 92.1795 291.611 92.9766C291.292 93.7737 290.601 94.3583 289.538 94.7302C288.688 94.8897 287.572 94.7302 286.191 94.252C284.862 93.7737 283.533 93.1891 282.205 92.4983C280.93 91.7543 280 91.0901 279.415 90.5055C278.777 89.8678 278.405 89.2036 278.299 88.5127C278.193 87.8219 278.166 87.0779 278.219 86.2808V85.404C278.113 81.1527 278.06 76.9014 278.06 72.6501C277.901 65.6354 277.635 58.6474 277.263 51.6859C277.21 51.5796 277.183 51.4733 277.183 51.367C277.077 49.9322 277.263 48.5505 277.741 47.222C278.272 45.8403 279.415 45.2292 281.169 45.3886C282.125 45.6012 283.161 45.9466 284.277 46.4249C285.393 46.9032 286.403 47.3814 287.306 47.8597C288.954 48.8694 290.07 50.0119 290.654 51.2873C291.239 52.5096 291.558 54.0507 291.611 55.9106C291.611 56.0169 291.638 56.1763 291.691 56.3889C291.744 56.6014 291.797 56.7609 291.85 56.8671C291.956 56.9734 292.116 56.9734 292.328 56.8671C292.488 56.7609 292.647 56.5217 292.807 56.1497C292.966 55.7777 293.125 55.4058 293.285 55.0338C293.338 54.8212 293.391 54.6618 293.444 54.5555C297.005 45.9466 303.143 43.2098 311.858 46.3452Z" fill="white"/>
<path d="M266.97 74.8023V75.1211C266.97 75.5994 266.997 76.3434 267.05 77.353C267.103 78.3627 267.183 79.4256 267.289 80.5415C267.448 81.6043 267.661 82.4546 267.927 83.0923C268.192 83.73 268.538 83.916 268.963 83.6503C269.122 83.4909 269.308 83.3049 269.521 83.0923C269.734 82.8797 269.92 82.6672 270.079 82.4546C271.992 79.7976 273.586 76.4762 274.862 72.4906C276.19 68.4519 277.2 64.732 277.891 61.331C278.103 60.3744 278.502 59.6039 279.086 59.0193C279.671 58.4348 280.415 58.3816 281.318 58.8599C282.115 59.3382 282.594 60.029 282.753 60.9324C282.966 61.8358 282.966 62.7392 282.753 63.6426L282.594 64.5992C281.85 68.691 280.548 73.58 278.688 79.2661C276.881 84.9522 274.569 89.2567 271.753 92.1794C269.255 94.1988 266.518 94.9162 263.543 94.3317C260.62 93.8002 258.149 92.392 256.129 90.1069C254.269 87.3967 253.18 83.5706 252.861 78.6284C252.542 73.6332 252.463 69.4616 252.622 66.1137C252.728 63.4035 252.914 60.4276 253.18 57.186C253.446 53.9443 253.871 50.995 254.455 48.338C254.615 47.7003 254.881 47.0891 255.253 46.5046C255.678 45.92 256.209 45.548 256.847 45.3886C257.91 45.2823 259.185 45.548 260.673 46.1857C262.161 46.7703 263.383 47.3283 264.34 47.8597C265.084 48.2848 265.801 48.8162 266.492 49.4539C267.236 50.0385 267.714 50.7293 267.927 51.5264C268.086 52.4298 268.06 53.3598 267.847 54.3163C267.847 54.582 267.82 54.7946 267.767 54.954C266.97 62.2344 266.704 68.8505 266.97 74.8023ZM255.332 23.9461C255.492 22.5113 255.837 21.3954 256.369 20.5982C256.9 19.748 257.803 19.3494 259.079 19.4026C260.673 19.5089 262.533 20.0137 264.659 20.9171C266.784 21.7674 268.432 22.777 269.601 23.9461C270.61 24.9558 270.929 26.2844 270.557 27.9317C270.238 29.7917 269.68 31.8642 268.883 34.1493C268.192 36.3812 267.289 37.9754 266.173 38.932C264.951 39.6228 263.463 39.6494 261.709 39.0117C259.902 38.5334 258.361 37.7629 257.086 36.7C255.97 35.7435 255.359 34.1227 255.253 31.8376C255.146 30.6154 255.093 29.2868 255.093 27.852C255.146 26.3641 255.226 25.0621 255.332 23.9461Z" fill="white"/>
<path d="M258.153 64.6788C257.356 68.7176 256.346 72.7031 255.124 76.6356C253.317 82.8531 250.421 88.8581 246.436 94.6505C242.45 100.496 237.242 104.402 230.812 106.368C227.943 107.059 224.993 107.086 221.964 106.448C218.935 105.81 216.172 104.694 213.674 103.1C210.964 101.293 208.519 98.9283 206.341 96.0056C204.162 93.0828 202.435 90.1335 201.159 87.1575C198.183 79.6646 196.563 71.2418 196.297 61.8889C196.031 52.4829 196.722 43.8475 198.369 35.9826C199.539 29.7119 201.478 23.707 204.188 17.9677C206.899 12.2285 210.964 7.55204 216.384 3.93843C222.177 -0.153441 228.421 -1.05685 235.117 1.22822C238.411 2.34419 241.201 3.77901 243.486 5.53267C245.771 7.28633 247.419 9.89025 248.428 13.3444C249.544 17.7551 249.73 22.8567 248.986 28.6491C248.242 34.3883 246.914 39.3305 245.001 43.4755C243.407 46.8765 241.095 49.6664 238.066 51.8452C235.037 54.024 231.583 54.3429 227.703 52.8018C227.331 52.6423 226.773 52.3235 226.029 51.8452C225.285 51.367 224.621 50.8621 224.037 50.3307C223.505 49.7461 223.293 49.2147 223.399 48.7365C223.505 48.5239 223.798 48.3379 224.276 48.1785C224.967 47.9128 225.79 47.3814 226.747 46.5842C228.447 44.7243 229.935 41.9875 231.211 38.3739C232.486 34.7072 233.443 31.439 234.08 28.5694C234.346 27.3471 234.745 25.2215 235.276 22.1924C235.807 19.1102 236.02 16.1343 235.914 13.2647C235.861 10.3951 235.09 8.64142 233.602 8.00373C231.636 7.63174 229.696 8.56172 227.783 10.7936C225.87 12.9724 224.169 15.4966 222.682 18.3663C221.247 21.2359 220.29 23.4678 219.812 25.0621C218.377 29.1539 217.075 34.8135 215.906 42.0407C215.215 46.5577 214.79 52.2172 214.631 59.0193C214.471 65.8214 214.949 72.464 216.065 78.9472C217.181 85.3773 219.281 90.2663 222.363 93.6142C224.648 95.7399 227.013 96.5635 229.457 96.0853C231.955 95.607 234.293 94.4645 236.472 92.6577C238.65 90.7977 240.484 88.9112 241.972 86.9981C246.011 81.5777 249.119 75.6259 251.298 69.1427C252.201 66.5919 252.919 64.0146 253.45 61.4106C253.663 60.401 254.061 59.6038 254.646 59.0193C255.231 58.4347 255.974 58.3816 256.878 58.8599C257.888 59.4976 258.392 60.3744 258.392 61.4903C258.446 62.5532 258.366 63.616 258.153 64.6788Z" fill="white"/>
</svg>
